<svg xmlns="http://www.w3.org/2000/svg" xmlns:xlink="http://www.w3.org/1999/xlink" width="100" height="100" viewBox="0 0 100 100"><g><g transform="translate(50 50) scale(0.69 0.69) rotate(0) translate(-50 -50)" style="fill:#000000"><svg fill="#000000" xmlns="http://www.w3.org/2000/svg" xmlns:xlink="http://www.w3.org/1999/xlink" version="1.1" x="0px" y="0px" viewBox="0 0 100 100" style="enable-background:new 0 0 100 100;" xml:space="preserve"><path d="M48.2,71.6c0.7,0.7,1.4,0.8,1.8,0.8c0.4,0,1.2-0.1,1.8-0.8l20.4-22.2c0.9-1,0.9-2.6-0.1-3.5c-1-0.9-2.6-0.9-3.5,0.1L50,66.2  L31.4,46c-0.9-1-2.5-1.1-3.5-0.1c-1,0.9-1.1,2.5-0.1,3.5L48.2,71.6z"></path><path d="M48.2,54c0.7,0.7,1.4,0.8,1.8,0.8c0.4,0,1.2-0.1,1.8-0.8l20.4-22.2c0.9-1,0.9-2.6-0.1-3.5c-1-0.9-2.6-0.9-3.5,0.1L50,48.6  L31.4,28.4c-0.9-1-2.5-1.1-3.5-0.1c-1,0.9-1.1,2.5-0.1,3.5L48.2,54z"></path></svg></g></g></svg>